# xmcd
#
# Track frame offsets: 
#        150
#        19538
#        36080
#        58713
#        75645
#        93704
#        109262
#        127110
#        144542
#        158278
#        174457
#        192804
#
# Disc length: 2762 seconds
#
# Revision: 1
# Processed by: cddbd v1.5.1PL0 Copyright (c) Steve Scherf et al.
# Submitted via: ExactAudioCopy v0.95a5
#
DISCID=970ac80c
DTITLE=Randy Weeks - Madline
DYEAR=2000
DGENRE=Rock
TTITLE0=Motor City
TTITLE1=Baby You Got To Choose
TTITLE2=Madeline
TTITLE3=Long Ride Home
TTITLE4=If I Cut You
TTITLE5=Can't Let Go
TTITLE6=Don't Step Away
TTITLE7=Last DWI
TTITLE8=Countryside With You
TTITLE9=Gimme Back My Soul
TTITLE10=Make You Happy
TTITLE11=Get Back To Me
EXTD=
EXTT0=
EXTT1=
EXTT2=
EXTT3=
EXTT4=
EXTT5=
EXTT6=
EXTT7=
EXTT8=
EXTT9=
EXTT10=
EXTT11=
PLAYORDER=
